<svg width="29" height="29" viewBox="0 0 29 29" fill="none" xmlns="http://www.w3.org/2000/svg">
<path fill-rule="evenodd" clip-rule="evenodd" d="M5.84486 7.77045C5.84486 6.76529 6.65971 5.95044 7.66487 5.95044C8.67003 5.95044 9.48488 6.76529 9.48488 7.77045C9.48488 8.77561 8.67003 9.59046 7.66487 9.59046C6.65971 9.59046 5.84486 8.77561 5.84486 7.77045ZM5.84473 15.0506C5.84473 14.0454 6.65957 13.2306 7.66473 13.2306C8.6699 13.2306 9.48474 14.0454 9.48474 15.0506C9.48474 16.0557 8.6699 16.8706 7.66473 16.8706C6.65957 16.8706 5.84473 16.0557 5.84473 15.0506ZM14.9447 5.95049C13.9395 5.95049 13.1247 6.76533 13.1247 7.77049C13.1247 8.77566 13.9395 9.5905 14.9447 9.5905C15.9499 9.5905 16.7647 8.77566 16.7647 7.77049C16.7647 6.76533 15.9499 5.95049 14.9447 5.95049ZM13.1247 15.0506C13.1247 14.0454 13.9395 13.2306 14.9447 13.2306C15.9499 13.2306 16.7647 14.0454 16.7647 15.0506C16.7647 16.0557 15.9499 16.8706 14.9447 16.8706C13.9395 16.8706 13.1247 16.0557 13.1247 15.0506ZM22.2251 5.95049C21.2199 5.95049 20.4051 6.76533 20.4051 7.77049C20.4051 8.77566 21.2199 9.5905 22.2251 9.5905C23.2302 9.5905 24.0451 8.77566 24.0451 7.77049C24.0451 6.76533 23.2302 5.95049 22.2251 5.95049ZM20.4051 15.0506C20.4051 14.0454 21.2199 13.2306 22.2251 13.2306C23.2302 13.2306 24.0451 14.0454 24.0451 15.0506C24.0451 16.0557 23.2302 16.8706 22.2251 16.8706C21.2199 16.8706 20.4051 16.0557 20.4051 15.0506ZM7.66473 20.5105C6.65957 20.5105 5.84473 21.3254 5.84473 22.3305C5.84473 23.3357 6.65957 24.1505 7.66473 24.1505C8.6699 24.1505 9.48474 23.3357 9.48474 22.3305C9.48474 21.3254 8.6699 20.5105 7.66473 20.5105ZM13.1247 22.3305C13.1247 21.3254 13.9395 20.5105 14.9447 20.5105C15.9499 20.5105 16.7647 21.3254 16.7647 22.3305C16.7647 23.3357 15.9499 24.1505 14.9447 24.1505C13.9395 24.1505 13.1247 23.3357 13.1247 22.3305ZM22.2251 20.5105C21.2199 20.5105 20.4051 21.3254 20.4051 22.3305C20.4051 23.3357 21.2199 24.1505 22.2251 24.1505C23.2302 24.1505 24.0451 23.3357 24.0451 22.3305C24.0451 21.3254 23.2302 20.5105 22.2251 20.5105Z" fill="#5B5A99"/>
</svg>
