<svg width="78" height="78" viewBox="0 0 78 78" fill="none" xmlns="http://www.w3.org/2000/svg">
<g id="Wallet">
<path id="Combined Shape" fill-rule="evenodd" clip-rule="evenodd" d="M26.3707 21.304C23.3552 21.304 20.9106 23.7485 20.9106 26.764V51.3341C20.9106 54.3496 23.3552 56.7941 26.3707 56.7941H50.9408C53.9563 56.7941 56.4008 54.3496 56.4008 51.3341V26.764C56.4008 23.7485 53.9563 21.304 50.9408 21.304H26.3707ZM41.3863 34.9538C39.1246 34.9538 37.2912 36.7872 37.2912 39.0489C37.2912 41.3105 39.1246 43.1439 41.3863 43.1439H46.8463C49.1079 43.1439 50.9413 41.3105 50.9413 39.0489C50.9413 36.7872 49.1079 34.9538 46.8463 34.9538H41.3863Z" fill="#6F6C99"/>
</g>
</svg>
